{
  "accessors": [
    {
      "bufferView": 2,
      "componentType": 5126,
      "count": 18690,
      "max": [
        1.8423919677734375,
        9.6228713989257812,
        0.093895271420478821
      ],
      "min": [
        -1.8123828172683716,
        0.037337064743041992,
        -0.79820841550827026
      ],
      "type": "VEC3"
    },
    {
      "bufferView": 2,
      "byteOffset": 224280,
      "componentType": 5126,
      "count": 18690,
      "max": [
        1,
        1,
        1
      ],
      "min": [
        -1,
        -1,
        -1
      ],
      "type": "VEC3"
    },
    {
      "bufferView": 3,
      "componentType": 5126,
      "count": 18690,
      "max": [
        1,
        1,
        1,
        1
      ],
      "min": [
        -1,
        -0.99999827146530151,
        -1,
        -1
      ],
      "type": "VEC4"
    },
    {
      "bufferView": 1,
      "componentType": 5126,
      "count": 18690,
      "max": [
        0.99401688575744629,
        0.99140667915344238
      ],
      "min": [
        0.0053729326464235783,
        0.0054323673248291016
      ],
      "type": "VEC2"
    },
    {
      "bufferView": 0,
      "componentType": 5125,
      "count": 68316,
      "max": [
        18689
      ],
      "min": [
        0
      ],
      "type": "SCALAR"
    }
  ],
  "asset": {
    "extras": {
      "author": "3d-mesh-factory a.k.a. Glowbox Designs (https://sketchfab.com/ra3id)",
      "license": "CC-BY-4.0 (http://creativecommons.org/licenses/by/4.0/)",
      "source": "https://sketchfab.com/3d-models/acoustic-guitar-steel-string-a8424727a3d54df89d4716966b4ab2ba",
      "title": "Acoustic Guitar - steel string"
    },
    "generator": "Sketchfab-8.76.0",
    "version": "2.0"
  },
  "bufferViews": [
    {
      "buffer": 0,
      "byteLength": 273264,
      "byteOffset": 0,
      "name": "floatBufferViews",
      "target": 34963
    },
    {
      "buffer": 0,
      "byteLength": 149520,
      "byteOffset": 273264,
      "byteStride": 8,
      "name": "floatBufferViews",
      "target": 34962
    },
    {
      "buffer": 0,
      "byteLength": 448560,
      "byteOffset": 422784,
      "byteStride": 12,
      "name": "floatBufferViews",
      "target": 34962
    },
    {
      "buffer": 0,
      "byteLength": 299040,
      "byteOffset": 871344,
      "byteStride": 16,
      "name": "floatBufferViews",
      "target": 34962
    }
  ],
  "buffers": [
    {
      "byteLength": 1170384,
      "uri": "scene.bin"
    }
  ],
  "images": [
    {
      "uri": "textures/Guitar_Diff_baseColor.png"
    },
    {
      "uri": "textures/Guitar_Diff_metallicRoughness.png"
    },
    {
      "uri": "textures/Guitar_Diff_normal.png"
    }
  ],
  "materials": [
    {
      "doubleSided": true,
      "emissiveFactor": [
        0,
        0,
        0
      ],
      "name": "Guitar_Diff",
      "normalTexture": {
        "index": 2,
        "scale": 1,
        "texCoord": 0
      },
      "pbrMetallicRoughness": {
        "baseColorFactor": [
          1,
          1,
          1,
          1
        ],
        "baseColorTexture": {
          "index": 0,
          "texCoord": 0
        },
        "metallicFactor": 1,
        "metallicRoughnessTexture": {
          "index": 1,
          "texCoord": 0
        },
        "roughnessFactor": 1
      }
    }
  ],
  "meshes": [
    {
      "name": "Bottom_Tuning_Pins6_Guitar_Diff_0",
      "primitives": [
        {
          "attributes": {
            "NORMAL": 1,
            "POSITION": 0,
            "TANGENT": 2,
            "TEXCOORD_0": 3
          },
          "indices": 4,
          "material": 0,
          "mode": 4
        }
      ]
    }
  ],
  "nodes": [
    {
      "children": [
        1
      ],
      "name": "RootNode (gltf orientation matrix)",
      "rotation": [
        -0.70710678118654746,
        -0,
        -0,
        0.70710678118654757
      ]
    },
    {
      "children": [
        2
      ],
      "name": "RootNode (model correction matrix)"
    },
    {
      "children": [
        3
      ],
      "matrix": [
        1,
        0,
        0,
        0,
        0,
        0,
        1,
        0,
        0,
        -1,
        0,
        0,
        0,
        0,
        0,
        1
      ],
      "name": "2cc6d56a65d04535ae2ff99d174fcf43.fbx"
    },
    {
      "children": [
        4
      ],
      "name": "RootNode"
    },
    {
      "children": [
        5
      ],
      "name": "Bottom_Tuning_Pins6"
    },
    {
      "mesh": 0,
      "name": "Bottom_Tuning_Pins6_Guitar_Diff_0"
    }
  ],
  "samplers": [
    {
      "magFilter": 9729,
      "minFilter": 9987,
      "wrapS": 10497,
      "wrapT": 10497
    }
  ],
  "scene": 0,
  "scenes": [
    {
      "name": "OSG_Scene",
      "nodes": [
        0
      ]
    }
  ],
  "textures": [
    {
      "sampler": 0,
      "source": 0
    },
    {
      "sampler": 0,
      "source": 1
    },
    {
      "sampler": 0,
      "source": 2
    }
  ]
}

