{
    "asset" : {
        "generator" : "Khronos glTF Blender I/O v1.5.17",
        "version" : "2.0"
    },
    "scene" : 0,
    "scenes" : [
        {
            "name" : "Scene",
            "nodes" : [
                0,
                1,
                2
            ]
        }
    ],
    "nodes" : [
        {
            "mesh" : 0,
            "name" : "node-0"
        },
        {
            "name" : "Camera",
            "rotation" : [
                0.483536034822464,
                0.33687159419059753,
                -0.20870360732078552,
                0.7804827094078064
            ],
            "translation" : [
                7.358891487121582,
                4.945772647857666,
                6.925790786743164
            ]
        },
        {
            "name" : "Light",
            "rotation" : [
                0.16907575726509094,
                0.7558803558349609,
                -0.27217137813568115,
                0.570947527885437
            ],
            "translation" : [
                4.076245307922363,
                5.903861999511719,
                -1.0054539442062378
            ]
        }
    ],
    "materials" : [
        {
            "doubleSided" : true,
            "name" : "lambert4SG",
            "pbrMetallicRoughness" : {
                "metallicFactor" : 0,
                "roughnessFactor" : 0.9699476361274719
            }
        },
        {
            "doubleSided" : true,
            "name" : "lambert5SG",
            "pbrMetallicRoughness" : {
                "baseColorFactor" : [
                    0.5,
                    0.28999999165534973,
                    0.1599999964237213,
                    1
                ],
                "metallicFactor" : 0,
                "roughnessFactor" : 0.9699476361274719
            }
        },
        {
            "doubleSided" : true,
            "name" : "lambert3SG",
            "pbrMetallicRoughness" : {
                "baseColorFactor" : [
                    0.009999999776482582,
                    0.009999999776482582,
                    0.009999999776482582,
                    1
                ],
                "metallicFactor" : 0,
                "roughnessFactor" : 0.9699476361274719
            }
        },
        {
            "doubleSided" : true,
            "name" : "lambert2SG",
            "pbrMetallicRoughness" : {
                "baseColorFactor" : [
                    0.3423837125301361,
                    0.28660693764686584,
                    0.31466934084892273,
                    1
                ],
                "metallicFactor" : 0,
                "roughnessFactor" : 0.4000000059604645
            }
        }
    ],
    "meshes" : [
        {
            "name" : "buffer-0-mesh-0",
            "primitives" : [
                {
                    "attributes" : {
                        "POSITION" : 0,
                        "NORMAL" : 1,
                        "TEXCOORD_0" : 2
                    },
                    "indices" : 3,
                    "material" : 0
                },
                {
                    "attributes" : {
                        "POSITION" : 4,
                        "NORMAL" : 5,
                        "TEXCOORD_0" : 6
                    },
                    "indices" : 7,
                    "material" : 1
                },
                {
                    "attributes" : {
                        "POSITION" : 8,
                        "NORMAL" : 9,
                        "TEXCOORD_0" : 10
                    },
                    "indices" : 11,
                    "material" : 2
                },
                {
                    "attributes" : {
                        "POSITION" : 12,
                        "NORMAL" : 13,
                        "TEXCOORD_0" : 14
                    },
                    "indices" : 15,
                    "material" : 3
                }
            ]
        }
    ],
    "accessors" : [
        {
            "bufferView" : 0,
            "componentType" : 5126,
            "count" : 824,
            "max" : [
                0.25598999857902527,
                2.3891429901123047,
                3.654247999191284
            ],
            "min" : [
                -0.25607699155807495,
                2.2484560012817383,
                3.5089869499206543
            ],
            "type" : "VEC3"
        },
        {
            "bufferView" : 1,
            "componentType" : 5126,
            "count" : 824,
            "type" : "VEC3"
        },
        {
            "bufferView" : 2,
            "componentType" : 5126,
            "count" : 824,
            "type" : "VEC2"
        },
        {
            "bufferView" : 3,
            "componentType" : 5123,
            "count" : 900,
            "type" : "SCALAR"
        },
        {
            "bufferView" : 4,
            "componentType" : 5126,
            "count" : 106,
            "max" : [
                0.24907700717449188,
                2.35711407661438,
                3.654247999191284
            ],
            "min" : [
                -0.2375359982252121,
                2.2742929458618164,
                3.6144518852233887
            ],
            "type" : "VEC3"
        },
        {
            "bufferView" : 5,
            "componentType" : 5126,
            "count" : 106,
            "type" : "VEC3"
        },
        {
            "bufferView" : 6,
            "componentType" : 5126,
            "count" : 106,
            "type" : "VEC2"
        },
        {
            "bufferView" : 7,
            "componentType" : 5123,
            "count" : 120,
            "type" : "SCALAR"
        },
        {
            "bufferView" : 8,
            "componentType" : 5126,
            "count" : 86,
            "max" : [
                0.22541199624538422,
                2.3255279064178467,
                4.214712142944336
            ],
            "min" : [
                -0.20808100700378418,
                1.7208490371704102,
                3.639185905456543
            ],
            "type" : "VEC3"
        },
        {
            "bufferView" : 9,
            "componentType" : 5126,
            "count" : 86,
            "type" : "VEC3"
        },
        {
            "bufferView" : 10,
            "componentType" : 5126,
            "count" : 86,
            "type" : "VEC2"
        },
        {
            "bufferView" : 11,
            "componentType" : 5123,
            "count" : 96,
            "type" : "SCALAR"
        },
        {
            "bufferView" : 12,
            "componentType" : 5126,
            "count" : 1191,
            "max" : [
                0.7213420271873474,
                2.636486053466797,
                4.161923885345459
            ],
            "min" : [
                -0.7213420271873474,
                -2.636486053466797,
                -4.214712142944336
            ],
            "type" : "VEC3"
        },
        {
            "bufferView" : 13,
            "componentType" : 5126,
            "count" : 1191,
            "type" : "VEC3"
        },
        {
            "bufferView" : 14,
            "componentType" : 5126,
            "count" : 1191,
            "type" : "VEC2"
        },
        {
            "bufferView" : 15,
            "componentType" : 5123,
            "count" : 2154,
            "type" : "SCALAR"
        }
    ],
    "bufferViews" : [
        {
            "buffer" : 0,
            "byteLength" : 9888,
            "byteOffset" : 0
        },
        {
            "buffer" : 0,
            "byteLength" : 9888,
            "byteOffset" : 9888
        },
        {
            "buffer" : 0,
            "byteLength" : 6592,
            "byteOffset" : 19776
        },
        {
            "buffer" : 0,
            "byteLength" : 1800,
            "byteOffset" : 26368
        },
        {
            "buffer" : 0,
            "byteLength" : 1272,
            "byteOffset" : 28168
        },
        {
            "buffer" : 0,
            "byteLength" : 1272,
            "byteOffset" : 29440
        },
        {
            "buffer" : 0,
            "byteLength" : 848,
            "byteOffset" : 30712
        },
        {
            "buffer" : 0,
            "byteLength" : 240,
            "byteOffset" : 31560
        },
        {
            "buffer" : 0,
            "byteLength" : 1032,
            "byteOffset" : 31800
        },
        {
            "buffer" : 0,
            "byteLength" : 1032,
            "byteOffset" : 32832
        },
        {
            "buffer" : 0,
            "byteLength" : 688,
            "byteOffset" : 33864
        },
        {
            "buffer" : 0,
            "byteLength" : 192,
            "byteOffset" : 34552
        },
        {
            "buffer" : 0,
            "byteLength" : 14292,
            "byteOffset" : 34744
        },
        {
            "buffer" : 0,
            "byteLength" : 14292,
            "byteOffset" : 49036
        },
        {
            "buffer" : 0,
            "byteLength" : 9528,
            "byteOffset" : 63328
        },
        {
            "buffer" : 0,
            "byteLength" : 4308,
            "byteOffset" : 72856
        }
    ],
    "buffers" : [
        {
            "byteLength" : 77164,
            "uri" : "data:application/octet-stream;base64,"
        }
    ]
}
